<svg width="100" height="100" xmlns="http://www.w3.org/2000/svg">

 <g>
  <title>background</title>
  <rect fill="none" id="canvas_background" height="402" width="582" y="-1" x="-1"/>
 </g>
 <g>
  <title>Layer 1</title>
  <path stroke-width="5" transform="rotate(45.121238708496094 49.981239318847656,49.98126220703125) " fill="#f4f2f2" id="svg_1" d="m82.5,17.5c-18,-18 -47.1,-18 -65,0s-18,47.1 0,65s47.1,18 65,0s17.9,-47 0,-65zm-42,23.1c5.2,-5.2 13.7,-5.2 18.9,0s5.2,13.7 0,18.9s-13.7,5.2 -18.9,0s-5.2,-13.7 0,-18.9zm37.1,37.1c-15.3,15.3 -40,15.3 -55.3,0l13.8,-13.8c7.6,7.6 20,7.6 27.6,0s7.6,-20 0,-27.6l13.9,-13.9c15.3,15.3 15.3,40 0,55.3z"/>
 </g>
</svg>